HIERARCHY
ROOT Hips
{
	OFFSET 0.000000 0.000000 0.000000 
	CHANNELS 6 Xposition Yposition Zposition Zrotation Yrotation Xrotation
	JOINT LeftUpLeg
	{
		OFFSET 1.363060 -1.794630 0.839290 
		CHANNELS 3 Zrotation Yrotation Xrotation
		JOINT LeftLeg
		{
			OFFSET 2.448110 -6.726130 0.000000 
			CHANNELS 3 Zrotation Yrotation Xrotation
			JOINT LeftFoot
			{
				OFFSET 2.562200 -7.039590 0.000000 
				CHANNELS 3 Zrotation Yrotation Xrotation
				JOINT LeftToeBase
				{
					OFFSET 0.157640 -0.433110 2.322550 
					CHANNELS 3 Zrotation Yrotation Xrotation
					End Site
					{
						OFFSET 0.000000 0.000000 0.000000 
					}
				}
			}
		}
	}
	JOINT RightUpLeg
	{
		OFFSET -1.305520 -1.794630 0.839290 
		CHANNELS 3 Zrotation Yrotation Xrotation
		JOINT RightLeg
		{
			OFFSET -2.542530 -6.985550 0.000000 
			CHANNELS 3 Zrotation Yrotation Xrotation
			JOINT RightFoot
			{
				OFFSET -2.568260 -7.056230 0.000000 
				CHANNELS 3 Zrotation Yrotation Xrotation
				JOINT RightToeBase
				{
					OFFSET -0.164730 -0.452590 2.363150 
					CHANNELS 3 Zrotation Yrotation Xrotation
					End Site
					{
						OFFSET 0.000000 0.000000 0.000000 
					}
				}
			}
		}
	}
	JOINT Spine
	{
		OFFSET 0.028270 2.035590 -0.193380 
		CHANNELS 3 Zrotation Yrotation Xrotation
		JOINT Spine1
		{
			OFFSET 0.056720 2.048850 -0.042750 
			CHANNELS 3 Zrotation Yrotation Xrotation
			JOINT Neck1
			{
				OFFSET -0.054170 1.746240 0.172020 
				CHANNELS 3 Zrotation Yrotation Xrotation
				JOINT Head
				{
					OFFSET 0.104070 1.761360 -0.123970 
					CHANNELS 3 Zrotation Yrotation Xrotation
					End Site
					{
						OFFSET 0.000000 0.000000 0.000000 
					}
				}
			}
			JOINT LeftArm
			{
				OFFSET 3.362410 1.200890 -0.311210 
				CHANNELS 3 Zrotation Yrotation Xrotation
				JOINT LeftForeArm
				{
					OFFSET 4.983000 -0.000000 -0.000000 
					CHANNELS 3 Zrotation Yrotation Xrotation
					JOINT LeftHand
					{
						OFFSET 3.483560 -0.000000 -0.000000 
						CHANNELS 3 Zrotation Yrotation Xrotation
						JOINT LeftHandIndex1
						{
							OFFSET 0.715260 -0.000000 -0.000000 
							CHANNELS 3 Zrotation Yrotation Xrotation
							End Site
							{
								OFFSET 0.000000 0.000000 0.000000 
							}
						}
					}
				}
			}
			JOINT RightArm
			{
				OFFSET -3.136600 1.374050 -0.404650 
				CHANNELS 3 Zrotation Yrotation Xrotation
				JOINT RightForeArm
				{
					OFFSET -5.241900 -0.000000 -0.000000 
					CHANNELS 3 Zrotation Yrotation Xrotation
					JOINT RightHand
					{
						OFFSET -3.444170 -0.000000 -0.000000 
						CHANNELS 3 Zrotation Yrotation Xrotation
						JOINT RightHandIndex1
						{
							OFFSET -0.622530 -0.000000 -0.000000 
							CHANNELS 3 Zrotation Yrotation Xrotation
							End Site
							{
								OFFSET 0.000000 0.000000 0.000000 
							}
						}
					}
				}
			}
		}
	}
}
MOTION
Frames: 15
Frame Time: 0.041667
-6.522438 17.489756 -23.780877 -176.285549 -39.688544 169.708138 -0.074182 -6.313402 -30.559102 12.091355 19.573712 65.605598 8.872192 -20.096733 16.528708 0.148500 -2.483300 -6.843500 8.366990 -1.965144 -29.452314 -9.413297 -17.123614 54.223253 5.226937 -14.393895 8.407221 -2.122800 9.117200 -26.162700 0.194143 -1.990423 -4.607728 1.932112 -0.968007 -8.162850 6.787251 -5.959477 4.231610 2.613200 -2.822600 7.814400 -86.092578 -1.427924 51.703615 119.279339 -53.516703 -90.097683 -1.061807 0.540615 7.764334 -7.125000 0.000000 0.000000 78.263349 3.306038 37.805699 -47.542634 46.564221 -31.637828 2.649275 0.548862 -6.175599 7.125000 0.000000 0.000000 
-6.589481 17.611972 -23.875620 -176.343309 -39.821397 170.302776 -0.377486 -5.930486 -30.380227 11.092770 19.191990 62.867634 9.090637 -19.657275 16.938185 0.138000 -2.394000 -6.595700 8.198302 -1.908272 -29.009986 -9.050831 -16.901704 53.011835 5.477444 -14.923834 8.675399 -2.055300 8.980300 -25.733700 0.197616 -1.909048 -4.613207 1.930547 -0.913478 -8.107371 6.737319 -6.042804 4.146709 2.576300 -2.870100 7.743900 -85.925852 -0.747090 50.864475 117.849767 -54.064098 -89.062819 -1.068791 0.544504 8.324907 -7.125000 0.000000 0.000000 77.986581 3.358893 37.255735 -47.902152 46.687406 -32.062230 2.637402 0.599655 -6.468123 7.125000 0.000000 0.000000 
-6.656977 17.733510 -23.969910 -176.351298 -39.911189 170.865868 -0.579587 -5.556089 -30.126028 10.077106 18.754262 60.090204 9.222459 -18.910728 17.544212 0.118500 -2.219400 -6.112500 8.055284 -1.808733 -28.558838 -8.683020 -16.672126 51.787842 5.729477 -15.458424 8.968985 -1.982400 8.829400 -25.263000 0.202162 -1.798474 -4.615738 1.931713 -0.847281 -8.043767 6.700465 -6.139315 4.065711 2.550700 -2.922900 7.669300 -85.750885 -0.079465 50.026763 116.010174 -54.702312 -87.711572 -1.084109 0.527859 8.555524 -7.125000 0.000000 0.000000 77.766359 3.357675 36.652215 -48.224269 46.798958 -32.457914 2.627095 0.657608 -6.778867 7.125000 0.000000 0.000000 
-6.725829 17.853803 -24.062957 -176.349089 -39.968910 171.428462 -0.710608 -5.210786 -29.800978 9.067830 18.265981 57.324458 9.235689 -17.825823 18.333789 0.090300 -1.937900 -5.334100 7.903768 -1.687220 -28.105220 -8.314466 -16.436399 50.554543 5.973772 -15.983895 9.297764 -1.908300 8.672400 -24.775800 0.205479 -1.667621 -4.616607 1.931699 -0.771770 -7.977187 6.674926 -6.248490 3.988944 2.535100 -2.981000 7.590400 -85.571191 0.574931 49.207181 113.737535 -55.401607 -86.026966 -1.109146 0.490664 8.477513 -7.125000 0.000000 0.000000 77.598408 3.305666 36.006794 -48.509222 46.899556 -32.823522 2.617783 0.719994 -7.097601 7.125000 0.000000 0.000000 
-6.795699 17.971497 -24.155439 -176.331718 -40.002846 171.979366 -0.768687 -4.908499 -29.406050 8.100643 17.744147 54.648292 9.129273 -16.487226 19.270430 0.054600 -1.507400 -4.146200 7.750560 -1.552664 -27.650823 -7.948567 -16.197327 49.325860 6.208496 -16.496346 9.648452 -1.834800 8.513200 -24.284000 0.208361 -1.524533 -4.616573 1.932817 -0.691156 -7.917087 6.660575 -6.367182 3.917294 2.529100 -3.042900 7.505700 -85.384868 1.219588 48.412602 111.012326 -56.121974 -83.996529 -1.144757 0.434317 8.131109 -7.125000 0.000000 0.000000 77.483521 3.209269 35.344491 -48.744402 46.984219 -33.142820 2.610146 0.784198 -7.404827 7.125000 0.000000 0.000000 
-6.866700 18.085686 -24.247355 -176.296962 -40.015677 172.514119 -0.762474 -4.656904 -28.953756 7.208234 17.212225 52.141365 8.928340 -15.032862 20.300635 0.019200 -0.893900 -2.456900 7.599667 -1.413252 -27.200542 -7.587538 -15.957348 48.113300 6.426938 -16.982932 10.015216 -1.761200 8.349800 -23.781800 0.211195 -1.374429 -4.616094 1.935853 -0.608461 -7.863174 6.658895 -6.486165 3.856221 2.536100 -3.104100 7.421900 -85.198067 1.853110 47.662351 107.820253 -56.812363 -81.609374 -1.193028 0.359337 7.559775 -7.125000 0.000000 0.000000 77.414851 3.079002 34.687596 -48.920271 47.049193 -33.402943 2.606281 0.847023 -7.691205 7.125000 0.000000 0.000000 
-6.939283 18.195917 -24.338819 -176.244914 -40.010004 173.023968 -0.704631 -4.459875 -28.453139 6.416577 16.694368 49.866253 8.663049 -13.561121 21.345707 0.000300 -0.117800 -0.323800 7.453966 -1.276149 -26.753951 -7.232992 -15.718340 46.925138 6.626274 -17.438159 10.388825 -1.688500 8.184600 -23.276100 0.215026 -1.224269 -4.616036 1.941963 -0.526966 -7.823267 6.662293 -6.601064 3.807683 2.548000 -3.163200 7.336600 -85.013790 2.488976 46.965429 104.165458 -57.411094 -78.865773 -1.252070 0.268067 6.821077 -7.125000 0.000000 0.000000 77.386593 2.920079 34.063107 -49.023634 47.089255 -33.586696 2.607611 0.906756 -7.957267 7.125000 0.000000 0.000000 
-7.013223 18.301853 -24.429718 -176.185239 -39.990071 173.519021 -0.613280 -4.323345 -27.919825 5.741473 16.211236 47.856718 8.358413 -12.118709 22.295199 0.012400 0.720400 1.979900 7.308685 -1.149228 -26.316494 -6.885634 -15.481233 45.763343 6.801496 -17.853988 10.773613 -1.618800 8.022200 -22.781600 0.220090 -1.081450 -4.616709 1.952597 -0.450465 -7.793333 6.667953 -6.703379 3.775477 2.562900 -3.216300 7.254900 -84.837816 3.124122 46.343186 100.085411 -57.848612 -75.782630 -1.319734 0.164067 5.968202 -7.125000 0.000000 0.000000 77.396455 2.747435 33.486436 -49.042056 47.098922 -33.678926 2.614887 0.961058 -8.198392 7.125000 0.000000 0.000000 
-7.088859 18.403492 -24.520051 -176.133337 -39.956284 174.003515 -0.507122 -4.243847 -27.365487 5.171486 15.771150 46.105344 8.059076 -10.804416 23.107024 0.060800 1.591000 4.376700 7.153692 -1.036453 -25.886868 -6.545472 -15.245807 44.627098 6.946784 -18.221106 11.174243 -1.551900 7.862700 -22.298000 0.225703 -0.948103 -4.618951 1.968578 -0.379354 -7.777818 6.674688 -6.791048 3.761358 2.581100 -3.262800 7.180800 -84.674339 3.764329 45.814395 95.648557 -58.061134 -72.386753 -1.391611 0.053660 5.057829 -7.125000 0.000000 0.000000 77.435583 2.565739 32.964568 -48.971660 47.075717 -33.674389 2.628399 1.009221 -8.417747 7.125000 0.000000 0.000000 
-7.165399 18.501966 -24.610384 -176.086098 -39.933904 174.467502 -0.389748 -4.227435 -26.787218 4.686809 15.372835 44.575474 7.794659 -9.659961 23.752892 0.138800 2.400800 6.614800 6.992638 -0.950224 -25.457852 -6.212381 -15.012227 43.517011 7.066015 -18.546137 11.580791 -1.487600 7.705500 -21.823200 0.234102 -0.837257 -4.620021 2.001573 -0.320668 -7.755052 6.676372 -6.859817 3.766994 2.594100 -3.300300 7.122400 -84.527765 4.381816 45.374412 90.954341 -58.005723 -68.718355 -1.458955 -0.054301 4.142495 -7.125000 0.000000 0.000000 77.493849 2.415783 32.499017 -48.792780 47.008478 -33.553851 2.646682 1.052312 -8.614827 7.125000 0.000000 0.000000 
-7.242392 18.596822 -24.699813 -176.047135 -39.904779 174.921838 -0.261580 -4.258548 -26.211346 4.262230 15.008826 43.217776 7.584717 -8.710522 24.266633 0.224400 3.049000 8.415100 6.824972 -0.878326 -25.038798 -5.886264 -14.779090 42.430904 7.157100 -18.827139 12.004334 -1.427900 7.555900 -21.373000 0.244766 -0.744735 -4.621059 2.045984 -0.271218 -7.729882 6.671330 -6.908504 3.785792 2.599200 -3.328500 7.072400 -84.395250 4.975956 44.996251 86.124624 -57.677468 -64.833704 -1.515497 -0.150562 3.283322 -7.125000 0.000000 0.000000 77.571932 2.302902 32.091725 -48.506893 46.896346 -33.318555 2.668227 1.090097 -8.784894 7.125000 0.000000 0.000000 
-7.319384 18.688738 -24.788451 -176.038034 -39.867618 175.383112 -0.139550 -4.320652 -25.656048 3.878900 14.670710 41.986749 7.421753 -7.919854 24.676645 0.300700 3.526000 9.746700 6.634951 -0.817308 -24.628435 -5.568539 -14.545367 41.364130 7.222999 -19.071510 12.452747 -1.374700 7.419800 -20.965200 0.256042 -0.671474 -4.622761 2.099817 -0.230278 -7.703140 6.660357 -6.936781 3.815265 2.595300 -3.346700 7.033600 -84.268626 5.540478 44.635810 81.272863 -57.107580 -60.799539 -1.553823 -0.226468 2.515645 -7.125000 0.000000 0.000000 77.681501 2.229833 31.730090 -48.128594 46.743423 -32.983534 2.690910 1.123018 -8.921687 7.125000 0.000000 0.000000 
-7.395020 18.777262 -24.875732 -176.042137 -39.820147 175.843438 -0.013119 -4.399950 -25.141862 3.524673 14.352146 40.847010 7.297095 -7.255727 25.038340 0.358000 3.844100 10.638500 6.437828 -0.757477 -24.234543 -5.259995 -14.310993 40.321536 7.267105 -19.284369 12.920878 -1.327200 7.295500 -20.593900 0.268072 -0.611837 -4.625252 2.157752 -0.195166 -7.674790 6.644217 -6.949628 3.847408 2.581700 -3.356800 7.002600 -84.138111 6.065428 44.256654 76.504988 -56.351983 -56.702171 -1.577842 -0.277917 1.852538 -7.125000 0.000000 0.000000 77.821532 2.209335 31.400562 -47.657926 46.546694 -32.550221 2.715517 1.149661 -9.016939 7.125000 0.000000 0.000000 
-7.468734 18.862734 -24.961430 -176.064908 -39.758192 176.312961 0.112555 -4.481938 -24.686862 3.199072 14.051521 39.779528 7.168475 -6.618426 25.394373 0.393800 4.029400 11.159300 6.231485 -0.694165 -23.862639 -4.961566 -14.075396 39.302028 7.292756 -19.472389 13.410814 -1.285800 7.185500 -20.266100 0.279320 -0.563290 -4.629683 2.213823 -0.164047 -7.648737 6.631673 -6.947873 3.878887 2.568300 -3.358700 6.979600 -83.999811 6.548556 43.817209 71.873834 -55.463671 -52.615313 -1.592245 -0.307084 1.332351 -7.125000 0.000000 0.000000 78.003146 2.233271 31.088840 -47.115972 46.313785 -32.041172 2.738436 1.170040 -9.076615 7.125000 0.000000 0.000000 
-7.539848 18.944928 -25.045658 -176.108910 -39.687981 176.793536 0.231435 -4.558253 -24.297562 2.905063 13.770825 38.784491 7.013608 -5.959598 25.760543 0.406800 4.094500 11.342700 6.015448 -0.629738 -23.514906 -4.674793 -13.839034 38.306710 7.306412 -19.646554 13.916321 -1.251500 7.092400 -19.989400 0.289203 -0.525793 -4.636386 2.262801 -0.136496 -7.628670 6.618995 -6.937095 3.902726 2.549300 -3.355000 6.957200 -83.840222 7.002156 43.298713 67.426181 -54.487146 -48.623021 -1.601460 -0.317619 0.994381 -7.125000 0.000000 0.000000 78.236033 2.290522 30.784659 -46.520055 46.051293 -31.474839 2.758271 1.184095 -9.094558 7.125000 0.000000 0.000000 
